<?xml version="1.0" encoding="utf-8"?>
<!-- Generator: Adobe Illustrator 21.1.0, SVG Export Plug-In . SVG Version: 6.00 Build 0)  -->
<svg version="1.1" id="Layer_1" xmlns="http://www.w3.org/2000/svg" xmlns:xlink="http://www.w3.org/1999/xlink" x="0px" y="0px"
	 viewBox="0 0 233 171" style="enable-background:new 0 0 233 171;" xml:space="preserve">
<style type="text/css">
	.st0{fill:#E4E4E4;}
	.st1{fill:#DCDCDC;}
	.st2{fill:#9E9E9E;}
	.st3{fill:#C2C2C2;}
	.st4{fill:#D8D8D8;}
	.st5{fill:#A8A8A8;}
	.st6{fill:#B8B8B8;}
	.st7{fill:#888888;}
	.st8{fill:#AAAAAA;}
	.st9{fill:#D3D3D3;}
	.st10{fill:#A7A7A7;}
	.st11{fill:none;}
	.st12{fill:#E3E3E3;}
	.st13{clip-path:url(#SVGID_2_);}
	.st14{fill:#BDBDBD;}
	.st15{clip-path:url(#SVGID_4_);}
	.st16{clip-path:url(#SVGID_6_);}
	.st17{clip-path:url(#SVGID_8_);}
	.st18{clip-path:url(#SVGID_10_);}
	.st19{clip-path:url(#SVGID_12_);}
	.st20{fill:#BCBCBC;}
</style>
<g>
	<path class="st0" d="M-1,151.6c2.7,5,153.5,7.8,163.4,8c9.9,0.1,24.7,3.8,41.8,3.9c17.1,0.1,29.4-3.7,27.5-9.4
		s-89.3-19.2-89.3-19.2S3,130.4-1,151.6z"/>
	<path class="st1" d="M161.2,145.7c0,0,9.5,4.7,12.4,13.9c3,9.2,7.9-2.5,7.9-2.5s-6-14.6-15-16.8c-9-2.2-5.9,2.9-5.9,2.9
		L161.2,145.7z"/>
	<path class="st1" d="M83.4,97c0,0-3.9,9.8-12.8,13.5c-8.9,3.7,3.2,7.6,3.2,7.6s14.1-7.2,15.5-16.3c1.4-9.1-3.4-5.6-3.4-5.6L83.4,97
		z"/>
	<path class="st1" d="M175.4,125.3c0,0-1.3,4.2,2,6c3.3,1.8,6.1-0.8,6.1-0.8s1.4,1,1.3,2.3c0,0-3.8,3.8-8.8,0.7
		c-5-3.1-3.1-8.5-3.1-8.5S174.5,123.8,175.4,125.3z"/>
	<path class="st1" d="M176.4,122.7c0,0,2-4,5.6-3c3.6,0.9,3.9,4.7,3.9,4.7s1.8,0.2,2.5-0.8c0,0-0.2-5.4-6-6.5
		c-5.8-1.1-8.1,4.1-8.1,4.1S174.8,123.1,176.4,122.7z"/>
	<path class="st2" d="M176.8,121.7c1.2,0.5,1.9,1.9,1.4,3.1c-0.5,1.2-1.9,1.8-3.1,1.4c-1.2-0.5-1.9-1.9-1.4-3.1
		C174.2,121.8,175.6,121.2,176.8,121.7z"/>
	<path class="st1" d="M142,94.8c0,0,3.3,10,11.9,14.3c8.6,4.3-3.7,7.4-3.7,7.4s-13.6-8.1-14.4-17.2c-0.8-9.2,3.8-5.4,3.8-5.4
		L142,94.8z"/>
	<path class="st3" d="M152.7,107.7c0,0-4.9,1.8-4.9,9.4c0,0,4,9.6,21.1,14.6c0,0,9.1-8.1,7.4-18.9h0
		C176.3,112.8,162.1,105.1,152.7,107.7z"/>
	<path class="st3" d="M137.4,87.8c0,0-6.8,4.5-4.8,12.1c0,0,10.8-1,12.8-9L137.4,87.8z"/>
	<path class="st4" d="M108.8,33.5v-5.2c0,0,0-2.9-2.1-3.9c-2.1-1-7.2-6.1-5.2-13.4c2-7.3,7.7-10.5,14.1-10.5c6.4,0,12.5,5.6,13,12.4
		c0.5,6.9-4.8,10.4-6,12.3c-1,1.6-1,3.2-1,3.2v5.1H108.8z"/>
	<path class="st5" d="M118.1,30.9L118.1,30.9c-0.3,0-0.5-0.3-0.5-0.6l1.5-12l-0.7,1.4c-0.1,0.2-0.3,0.3-0.6,0.3
		c-0.2,0-0.4-0.3-0.4-0.5v-1.3l-0.4,0.9c-0.1,0.2-0.3,0.3-0.5,0.3c-0.2,0-0.4-0.2-0.5-0.4l-0.4-1.5L115,19c-0.1,0.2-0.2,0.3-0.5,0.2
		c-0.2,0-0.4-0.1-0.4-0.3l-0.6-1.3l-0.7,1.4c-0.1,0.2-0.3,0.3-0.4,0.3s-0.4-0.1-0.4-0.3l-0.7-1.4l0.9,12.7c0,0.3-0.2,0.5-0.5,0.5
		c-0.3,0-0.5-0.2-0.5-0.5l-1.1-15.2c0-0.2,0.1-0.4,0.4-0.5c0.2-0.1,0.5,0,0.6,0.3l1.4,2.7l0.7-1.5c0.1-0.2,0.3-0.3,0.5-0.3
		c0.2,0,0.4,0.1,0.4,0.3l0.6,1.4l0.9-1.6c0.1-0.2,0.3-0.3,0.5-0.2c0.2,0,0.4,0.2,0.4,0.4l0.3,1.3l0.8-1.8c0.1-0.2,0.3-0.4,0.6-0.3
		c0.2,0.1,0.4,0.2,0.4,0.5v1.5l1.1-2.3c0.1-0.2,0.3-0.3,0.6-0.3c0.2,0.1,0.4,0.3,0.4,0.5l-1.9,15.2
		C118.5,30.7,118.3,30.9,118.1,30.9z"/>
	<rect x="107.7" y="29.4" class="st3" width="15.2" height="5.9"/>
	<polygon class="st1" points="73.7,78.1 89.6,29.1 144.2,35.9 147.2,87.2 	"/>
	<path class="st6" d="M108.6,53.6c-0.5,3.6-3.8,6.2-7.4,5.7c-3.6-0.5-6.2-3.8-5.8-7.4c0.5-3.6,3.8-6.2,7.4-5.7
		C106.5,46.7,109.1,50,108.6,53.6z"/>
	<path class="st6" d="M135.1,56.9c-0.5,3.6-3.8,6.2-7.4,5.7c-3.6-0.5-6.2-3.8-5.8-7.4c0.5-3.6,3.8-6.2,7.4-5.7
		C133,50,135.6,53.3,135.1,56.9z"/>
	<path class="st6" d="M127.4,78.6c-0.4,0-0.8-0.2-0.9-0.6c-0.2-0.4-3.6-9.1-12.6-9.6c-9.1-0.5-14.9,8-15,8.1
		c-0.3,0.5-0.9,0.6-1.4,0.3c-0.5-0.3-0.6-0.9-0.3-1.4c0.3-0.4,6.5-9.6,16.8-9c10.3,0.6,14.2,10.5,14.4,10.9c0.2,0.5-0.1,1.1-0.6,1.3
		C127.7,78.5,127.5,78.6,127.4,78.6z"/>
	<path class="st7" d="M67,61.9L67,61.9c-0.2,0-0.4-0.2-0.5-0.4l-2.2-8.8l0,0.1c-0.1,0.2-0.3,0.3-0.5,0.3h-5.9
		c-0.3,0-0.5-0.2-0.5-0.5c0-0.3,0.2-0.5,0.5-0.5h5.5l0.5-1.5c0.1-0.2,0.3-0.4,0.5-0.4c0.2,0,0.4,0.2,0.5,0.4l2.2,8.8l3.7-12
		c0.1-0.2,0.2-0.3,0.4-0.4c0.2,0,0.4,0.1,0.5,0.3l3.4,8.1h6.6c0.3,0,0.5,0.2,0.5,0.5c0,0.3-0.2,0.5-0.5,0.5h-6.9
		c-0.2,0-0.4-0.1-0.5-0.3l-3-7.2l-3.8,12.5C67.4,61.8,67.2,61.9,67,61.9z"/>
	<ellipse class="st8" cx="55.2" cy="52.6" rx="3.1" ry="3.1"/>
	<path class="st7" d="M160.4,62.9c-0.2,0-0.4-0.1-0.5-0.4l-3.8-12.5l-3,7.2c-0.1,0.2-0.3,0.3-0.5,0.3h-6.9c-0.3,0-0.5-0.2-0.5-0.5
		c0-0.3,0.2-0.5,0.5-0.5h6.6l3.4-8.1c0.1-0.2,0.3-0.3,0.5-0.3c0.2,0,0.4,0.1,0.5,0.3l3.7,12l2.2-8.8c0.1-0.2,0.2-0.4,0.5-0.4
		c0.2,0,0.4,0.1,0.5,0.3l0.5,1.5h5.5c0.3,0,0.5,0.2,0.5,0.5c0,0.3-0.2,0.5-0.5,0.5h-5.9c-0.2,0-0.4-0.1-0.5-0.4l0-0.1l-2.2,8.8
		C160.8,62.7,160.6,62.9,160.4,62.9L160.4,62.9z"/>
	<ellipse class="st8" cx="172.1" cy="53.6" rx="3.1" ry="3.1"/>
	<rect x="88.9" y="87.8" class="st9" width="50" height="56.6"/>
	<rect x="110.3" y="82.8" class="st3" width="8" height="4.9"/>
	<rect x="97.9" y="98" class="st10" width="31.9" height="4.3"/>
	<path class="st10" d="M103.4,113.1c0,1.5-1.2,2.8-2.8,2.8c-1.5,0-2.8-1.2-2.8-2.8c0-1.5,1.2-2.8,2.8-2.8
		C102.2,110.4,103.4,111.6,103.4,113.1z"/>
	<path class="st10" d="M116.5,113.1c0,1.5-1.2,2.8-2.8,2.8c-1.5,0-2.8-1.2-2.8-2.8c0-1.5,1.2-2.8,2.8-2.8
		C115.2,110.4,116.5,111.6,116.5,113.1z"/>
	<path class="st10" d="M129.5,113.1c0,1.5-1.2,2.8-2.8,2.8c-1.5,0-2.8-1.2-2.8-2.8c0-1.5,1.2-2.8,2.8-2.8
		C128.3,110.4,129.5,111.6,129.5,113.1z"/>
	<path class="st11" d="M161.2,145.7c0,0,9.5,4.7,12.4,13.9c3,9.2,7.9-2.5,7.9-2.5s-6-14.6-15-16.8c-9-2.2-5.9,2.9-5.9,2.9
		L161.2,145.7z"/>
	<path class="st1" d="M136.6,144.1c0,0,9.8-4.1,18.7-0.3s3.2-7.6,3.2-7.6s-15-5-22.6,0.4c-7.5,5.4-1.6,6.4-1.6,6.4L136.6,144.1z"/>
	<path class="st3" d="M157.1,145.4l5.8,3l10-8c0,0,0.6-6.3-5.7-9.1c-6.4-2.8-9.8,0.8-9.8,0.8L157.1,145.4z"/>
	<path class="st1" d="M48.1,125.3c0,0,1,4.3-2.4,5.9c-3.4,1.6-6-1.2-6-1.2s-1.5,0.9-1.5,2.2c0,0,3.6,4,8.8,1.3
		c5.2-2.7,3.6-8.2,3.6-8.2S49.1,123.9,48.1,125.3z"/>
	<path class="st1" d="M47.2,122.7c0,0-1.7-4.1-5.4-3.4c-3.7,0.7-4.2,4.5-4.2,4.5s-1.8,0.1-2.5-1c0,0,0.6-5.3,6.4-6.1
		c5.8-0.8,7.8,4.6,7.8,4.6S48.9,123.2,47.2,122.7z"/>
	<path class="st2" d="M46.9,121.6c-1.3,0.4-2,1.8-1.6,3c0.4,1.3,1.8,2,3,1.6c1.3-0.4,2-1.8,1.6-3C49.5,121.9,48.2,121.2,46.9,121.6z
		"/>
	<path class="st3" d="M71.9,109.2c0,0,4.7,2.1,4.3,9.7c0,0-4.6,9.3-22,13.2c0,0-8.5-8.6-6.2-19.3h0C48,112.8,62.7,106,71.9,109.2z"
		/>
	<path class="st3" d="M88.4,90.3c0,0,6.5,5,4,12.4c0,0-10.8-1.7-12.2-9.8L88.4,90.3z"/>
	<path class="st1" d="M92.1,51.8c4.5,3,19.7-3.1,19.1-6.4c-0.5-2.8-13-6.5-18.2-1.9C90.3,45.8,89.7,50.2,92.1,51.8z"/>
	<path class="st1" d="M124,46c0.3,5.3,14.4,13.6,16.7,11.2c0.2-0.2-1-13.9-9.6-15.6C127.7,40.9,123.8,43.1,124,46z"/>
	<path class="st1" d="M67.8,144.6c0,0-9.9,4.3-13.4,13.3c-3.5,9-8-2.9-8-2.9s6.8-14.3,16.1-16.1c9.3-1.8,6,3.2,6,3.2L67.8,144.6z"/>
	<path class="st12" d="M93.1,144.1c0,0-9.9-4.5-19.2-1.2c-9.3,3.3-3-7.8-3-7.8s15.7-4.3,23.2,1.3c7.5,5.7,1.4,6.5,1.4,6.5
		L93.1,144.1z"/>
	<g>
		<defs>
			<path id="SVGID_1_" d="M93.1,144.1c0,0-9.9-4.5-19.2-1.2c-9.3,3.3-3-7.8-3-7.8s15.7-4.3,23.2,1.3c7.5,5.7,1.4,6.5,1.4,6.5
				L93.1,144.1z"/>
		</defs>
		<use xlink:href="#SVGID_1_"  style="overflow:visible;fill:#DCDCDC;"/>
		<clipPath id="SVGID_2_">
			<use xlink:href="#SVGID_1_"  style="overflow:visible;"/>
		</clipPath>
		<g class="st13">
			<path class="st14" d="M87.5,143.9c-0.2,0-0.3-0.1-0.4-0.2c-0.2-0.2-0.1-0.5,0.1-0.7c0.2-0.1,5.2-3.6,1.9-8.7
				c-0.1-0.2-0.1-0.5,0.2-0.7c0.2-0.2,0.5-0.1,0.7,0.1c3.8,5.9-2.1,10-2.2,10.1C87.7,143.9,87.6,143.9,87.5,143.9z"/>
			<path class="st14" d="M82.7,143.6c-0.1,0-0.3-0.1-0.4-0.1c-0.2-0.2-0.2-0.5,0-0.7c0.2-0.2,4.3-4.4,0.2-8.7
				c-0.2-0.2-0.2-0.5,0-0.7c0.2-0.2,0.5-0.2,0.7,0c4.8,5.1-0.2,10.1-0.2,10.1C82.9,143.5,82.8,143.6,82.7,143.6z"/>
			<path class="st14" d="M77.9,143.2c-0.1,0-0.2,0-0.3-0.1c-0.2-0.2-0.3-0.5-0.1-0.7c0.1-0.2,3.5-5.2-1.5-8.8
				c-0.2-0.2-0.3-0.5-0.1-0.7c0.2-0.2,0.5-0.3,0.7-0.1c5.7,4.2,1.7,10.1,1.7,10.2C78.2,143.2,78,143.2,77.9,143.2z"/>
		</g>
	</g>
	<g>
		<defs>
			<path id="SVGID_3_" d="M67.8,144.6c0,0-9.9,4.3-13.4,13.3c-3.5,9-8-2.9-8-2.9s6.8-14.3,16.1-16.1c9.3-1.8,6,3.2,6,3.2L67.8,144.6
				z"/>
		</defs>
		<clipPath id="SVGID_4_">
			<use xlink:href="#SVGID_3_"  style="overflow:visible;"/>
		</clipPath>
		<g class="st15">
			<path class="st14" d="M63.6,148.8L63.6,148.8c-0.3,0-0.5-0.3-0.5-0.6c0-0.2,0.5-6.1-5.6-7c-0.3,0-0.5-0.3-0.4-0.6
				c0-0.3,0.3-0.5,0.6-0.4c7.1,1,6.5,8.1,6.5,8.1C64.1,148.6,63.9,148.8,63.6,148.8z"/>
			<path class="st14" d="M60.2,152.1c-0.2,0-0.5-0.2-0.5-0.4c0-0.2-0.6-5.9-6.5-5.9l-0.3,0c-0.3,0-0.5-0.2-0.5-0.5
				c0-0.3,0.2-0.5,0.5-0.5c7-0.2,7.8,6.7,7.8,6.8C60.8,151.8,60.6,152.1,60.2,152.1L60.2,152.1z"/>
			<path class="st14" d="M56.8,155.4c-0.2,0-0.4-0.1-0.5-0.4c-0.1-0.2-1.8-5.9-7.9-4.7c-0.3,0.1-0.5-0.1-0.6-0.4
				c-0.1-0.3,0.1-0.5,0.4-0.6c7-1.5,9,5.3,9,5.4c0.1,0.3-0.1,0.5-0.3,0.6C56.9,155.4,56.9,155.4,56.8,155.4z"/>
		</g>
	</g>
	<path class="st2" d="M45.9,169.5c0,0,13.2-8.9,6.1-24.4c-7.1-15.4-22.6-9.2-22.6-9.2s-4.4,5.9,2.2,19.6
		C38.4,169.1,45.9,169.5,45.9,169.5z"/>
	<path class="st3" d="M72,144.5l-6.1,2.8l-9.9-8.4c0,0-0.4-6.3,6.3-8.8c6.6-2.5,10,1.2,10,1.2L72,144.5z"/>
	<g>
		<defs>
			<path id="SVGID_5_" d="M83.4,97c0,0-3.9,9.8-12.8,13.5c-8.9,3.7,3.2,7.6,3.2,7.6s14.1-7.2,15.5-16.3c1.4-9.1-3.4-5.6-3.4-5.6
				L83.4,97z"/>
		</defs>
		<clipPath id="SVGID_6_">
			<use xlink:href="#SVGID_5_"  style="overflow:visible;"/>
		</clipPath>
		<g class="st16">
			<path class="st14" d="M87.8,107.2c-0.2,0-0.4-0.2-0.5-0.4c-1.2-5.9-7.1-5.2-7.3-5.1c-0.3,0-0.5-0.2-0.6-0.4
				c0-0.3,0.2-0.5,0.4-0.6c0.1,0,7.1-0.9,8.4,5.9C88.3,106.9,88.1,107.2,87.8,107.2L87.8,107.2z"/>
			<path class="st14" d="M83.3,111.9c-0.3,0-0.5-0.2-0.5-0.5c-0.1-5.9-5.9-6.2-6.2-6.2c-0.3,0-0.5-0.2-0.5-0.5
				c0-0.3,0.2-0.5,0.5-0.5c0.1,0,7,0.4,7.1,7.2C83.8,111.6,83.6,111.9,83.3,111.9L83.3,111.9z"/>
			<path class="st14" d="M78.9,116.5L78.9,116.5c-0.4-0.1-0.5-0.3-0.5-0.6c1-5.9-4.8-7.3-5-7.4c-0.3-0.1-0.4-0.3-0.4-0.6
				c0.1-0.3,0.3-0.4,0.6-0.4c0.1,0,7,1.7,5.8,8.5C79.4,116.3,79.2,116.5,78.9,116.5z"/>
		</g>
	</g>
	<g>
		<defs>
			<path id="SVGID_7_" d="M142,94.8c0,0,3.3,10,11.9,14.3c8.6,4.3-3.7,7.4-3.7,7.4s-13.6-8.1-14.4-17.2c-0.8-9.2,3.8-5.4,3.8-5.4
				L142,94.8z"/>
		</defs>
		<clipPath id="SVGID_8_">
			<use xlink:href="#SVGID_7_"  style="overflow:visible;"/>
		</clipPath>
		<g class="st17">
			<path class="st14" d="M137,104.7c0,0-0.1,0-0.1,0c-0.3-0.1-0.4-0.3-0.4-0.6c1.8-6.7,8.7-5.4,8.8-5.4c0.3,0,0.4,0.3,0.4,0.6
				c-0.1,0.3-0.3,0.4-0.6,0.4c-0.2,0-6.1-1.1-7.6,4.7C137.4,104.6,137.2,104.7,137,104.7z"/>
			<path class="st14" d="M141.1,109.6L141.1,109.6c-0.3,0-0.5-0.3-0.5-0.5c0.5-6.8,7.5-6.8,7.6-6.8c0.3,0,0.5,0.2,0.5,0.5
				c0,0.3-0.2,0.5-0.5,0.5h0c-0.5,0-6.1,0.1-6.5,5.8C141.6,109.4,141.4,109.6,141.1,109.6z"/>
			<path class="st14" d="M145.2,114.5c-0.2,0-0.5-0.2-0.5-0.5c-0.7-6.9,6.2-8.1,6.3-8.1c0.3,0,0.5,0.1,0.6,0.4
				c0.1,0.3-0.1,0.5-0.4,0.6c-0.2,0-6.1,1.1-5.5,7C145.8,114.3,145.6,114.5,145.2,114.5L145.2,114.5z"/>
		</g>
	</g>
	<g>
		<defs>
			<path id="SVGID_9_" d="M136.6,144.1c0,0,9.8-4.1,18.7-0.3s3.2-7.6,3.2-7.6s-15-5-22.6,0.4c-7.5,5.4-1.6,6.4-1.6,6.4L136.6,144.1z
				"/>
		</defs>
		<clipPath id="SVGID_10_">
			<use xlink:href="#SVGID_9_"  style="overflow:visible;"/>
		</clipPath>
		<g class="st18">
			<path class="st14" d="M142.2,144.2c-0.1,0-0.2,0-0.3-0.1c-0.1-0.1-5.6-4.4-1.6-10.2c0.2-0.2,0.5-0.3,0.7-0.1
				c0.2,0.2,0.3,0.5,0.1,0.7c-3.4,5,1.2,8.6,1.4,8.8c0.2,0.2,0.3,0.5,0.1,0.7C142.5,144.1,142.3,144.2,142.2,144.2z"/>
			<path class="st14" d="M146.8,144c-0.1,0-0.3-0.1-0.4-0.2c-0.1-0.1-4.6-5.3,0.2-10.1c0.2-0.2,0.5-0.2,0.7,0c0.2,0.2,0.2,0.5,0,0.7
				c-4.2,4.2-0.3,8.6-0.2,8.8c0.2,0.2,0.2,0.5,0,0.7C147.1,144,147,144,146.8,144z"/>
			<path class="st14" d="M151.5,143.9c-0.2,0-0.3-0.1-0.4-0.2c0-0.1-3.7-6.1,2.1-10.1c0.2-0.2,0.5-0.1,0.7,0.1
				c0.2,0.2,0.1,0.5-0.1,0.7c-5,3.4-1.9,8.5-1.8,8.7c0.1,0.2,0.1,0.5-0.2,0.7C151.7,143.9,151.6,143.9,151.5,143.9z"/>
		</g>
	</g>
	<g>
		<defs>
			<path id="SVGID_11_" d="M161.2,145.7c0,0,9.5,4.7,12.4,13.9c3,9.2,7.9-2.5,7.9-2.5s-6-14.6-15-16.8c-9-2.2-5.9,2.9-5.9,2.9
				L161.2,145.7z"/>
		</defs>
		<clipPath id="SVGID_12_">
			<use xlink:href="#SVGID_11_"  style="overflow:visible;"/>
		</clipPath>
		<g class="st19">
			<path class="st14" d="M165.1,150.1c-0.3,0-0.5-0.2-0.5-0.5c0-0.1-0.3-7.1,6.7-7.9c0.2,0,0.5,0.2,0.6,0.4c0,0.3-0.2,0.5-0.4,0.6
				c-6,0.6-5.8,6.6-5.8,6.8C165.6,149.8,165.4,150,165.1,150.1L165.1,150.1z"/>
			<path class="st14" d="M168.2,153.5L168.2,153.5c-0.3,0-0.5-0.3-0.5-0.6c0-0.1,1-6.9,7.9-6.4c0.3,0,0.5,0.3,0.5,0.5
				c0,0.3-0.3,0.5-0.5,0.5c-5.9-0.5-6.8,5.3-6.8,5.6C168.7,153.3,168.5,153.5,168.2,153.5z"/>
			<path class="st14" d="M171.4,156.9c-0.1,0-0.1,0-0.2,0c-0.3-0.1-0.4-0.4-0.3-0.6c0-0.1,2.3-6.7,9-5c0.3,0.1,0.4,0.3,0.3,0.6
				c-0.1,0.3-0.3,0.4-0.6,0.4c-5.8-1.5-7.8,4.1-7.8,4.3C171.8,156.8,171.6,156.9,171.4,156.9z"/>
		</g>
	</g>
	<path class="st20" d="M181.4,171.5c0,0-12.5-9.5-4.9-24.6c7.6-15.1,22.4-8.3,22.4-8.3s4,6.1-3.1,19.4
		C188.7,171.4,181.4,171.5,181.4,171.5z"/>
</g>
</svg>
